<svg xmlns="http://www.w3.org/2000/svg" version="1.1" xmlns:xlink="http://www.w3.org/1999/xlink" xmlns:svgjs="http://svgjs.dev/svgjs" width="1500" height="106" viewBox="0 0 1500 106"><g transform="matrix(1,0,0,1,-0.9090909090909918,-1.2665942110044597)"><svg viewBox="0 0 396 28" data-background-color="#0a1627" preserveAspectRatio="xMidYMid meet" height="106" width="1500" xmlns="http://www.w3.org/2000/svg" xmlns:xlink="http://www.w3.org/1999/xlink"><g id="tight-bounds" transform="matrix(1,0,0,1,0.2400000000000091,0.3345720557370271)"><svg viewBox="0 0 395.52 27.33085588852593" height="27.33085588852593" width="395.52"><g><svg viewBox="0 0 425.6341369543733 29.411775026135434" height="27.33085588852593" width="395.52"><g><rect width="2.639188283391762" height="29.411775026135434" x="20.566078819170635" y="0" fill="#c81032" opacity="1" stroke-width="0" stroke="transparent" fill-opacity="1" class="rect-yte-0" data-fill-palette-color="primary" rx="1%" id="yte-0" data-palette-color="#c81032"></rect></g><g transform="matrix(1,0,0,1,30.11413695437329,0.07316361946799788)"><svg viewBox="0 0 395.52 29.265447787199438" height="29.265447787199438" width="395.52"><g id="textblocktransform"><svg viewBox="0 0 395.52 29.265447787199438" height="29.265447787199438" width="395.52" id="textblock"><g><svg viewBox="0 0 395.52 29.265447787199438" height="29.265447787199438" width="395.52"><g transform="matrix(1,0,0,1,0,0)"><svg width="395.52" viewBox="-12.5 -31.25 430.42 31.85" height="29.265447787199438" data-palette-color="#c81032"><path d="M31.15-19.05L29.8-11.6 21.7-11.6 19.7 0 10.2 0 15.7-31.25 35.2-31.25 32.55-23.25 23.75-23.25 23.05-19.05 31.15-19.05ZM9.1-2.4L8.7-0.15-12.5-2.4 9.1-2.4ZM10.8-12.05L10.4-9.8-10.8-12.05 10.8-12.05ZM11.65-16.85L11.25-14.6-9.95-16.85 11.65-16.85ZM12.5-21.65L12.1-19.4-9.1-21.65 12.5-21.65ZM13.3-26.45L12.95-24.2-8.25-26.45 13.3-26.45ZM9.95-7.25L9.55-5-11.65-7.25 9.95-7.25ZM14.15-31.25L13.75-29-7.4-31.25 14.15-31.25ZM61.05-7.35L59.75 0 43.5 0 48.1-26.45 56.9-26.45 53.55-7.35 61.05-7.35ZM42.25-2.4L41.85-0.15 20.65-2.4 42.25-2.4ZM43.95-12.05L43.55-9.8 22.35-12.05 43.95-12.05ZM44.8-16.85L44.4-14.6 23.2-16.85 44.8-16.85ZM45.65-21.65L45.25-19.4 24.05-21.65 45.65-21.65ZM46.45-26.45L46.1-24.2 24.9-26.45 46.45-26.45ZM43.1-7.25L42.7-5 21.5-7.25 43.1-7.25ZM96.7 0L87.95 0 87.75-4.05 81.45-4.05 79.9 0 71.25 0 82.35-26.45 94.75-26.45 96.7 0ZM84.1-11.2L87.75-11.2 87.75-18.8 87.05-18.8 84.1-11.2ZM70.6-2.4L69.65-0.2 49.15-2.4 70.6-2.4ZM72.65-7.25L71.7-5.05 51.2-7.25 72.65-7.25ZM74.65-12.05L73.75-9.85 53.25-12.05 74.65-12.05ZM76.7-16.85L75.75-14.65 55.3-16.85 76.7-16.85ZM78.7-21.65L77.8-19.45 57.35-21.65 78.7-21.65ZM80.7-26.45L79.8-24.3 59.4-26.45 80.7-26.45ZM108.54-0.15L87.64-2.4 109.24-2.4 108.54-0.15ZM91.49-21.65L113.04-21.65Q112.74-20.85 112.39-19.4L112.39-19.4 91.49-21.65ZM111.79-15L111.79-15 111.79-14.6 90.59-16.85 111.89-16.85Q111.79-15.65 111.79-15ZM110.84-7.25L110.14-5.05 89.29-7.25 110.84-7.25ZM94.94-26.45L116.49-26.45Q115.14-25.45 114.44-24.35L114.44-24.35 94.94-26.45ZM92.54-12.05L112.24-12.05Q112.69-10.75 113.69-9.8L113.69-9.8 92.54-12.05ZM134.59-25.9L132.19-18.6Q128.79-19.4 126.39-19.4 123.99-19.4 122.84-19.25L122.84-19.25 122.59-17.8 125.09-17.5Q133.14-16.45 133.14-10.85L133.14-10.85Q133.14-10.2 132.84-8.43 132.54-6.65 131.84-5 131.14-3.35 130.07-2.33 128.99-1.3 127.97-0.68 126.94-0.05 125.34 0.2L125.34 0.2Q122.84 0.6 118.67 0.6 114.49 0.6 110.24-0.55L110.24-0.55 112.69-7.95Q116.59-6.85 119.52-6.85 122.44-6.85 123.64-7L123.64-7 123.89-8.6 120.74-8.95Q116.69-9.4 114.99-10.85 113.29-12.3 113.29-15L113.29-15Q113.29-16 113.54-17.5L113.54-17.5Q114.54-22.85 117.14-24.9 119.74-26.95 125.07-26.95 130.39-26.95 134.59-25.9L134.59-25.9ZM168.09 0L159.69 0 161.24-9.15 155.64-9.15 154.04 0 145.64 0 150.24-26.45 158.69-26.45 157.04-17.3 162.69-17.3 164.29-26.45 172.74-26.45 168.09 0ZM144.39-2.4L143.99-0.15 122.79-2.4 144.39-2.4ZM146.09-12.05L145.69-9.8 124.49-12.05 146.09-12.05ZM146.94-16.85L146.54-14.6 125.34-16.85 146.94-16.85ZM147.79-21.65L147.39-19.4 126.19-21.65 147.79-21.65ZM148.59-26.45L148.24-24.2 127.04-26.45 148.59-26.45ZM145.24-7.25L144.84-5 123.64-7.25 145.24-7.25ZM204.64-8L203.24 0 184.24 0 189.74-31.25 199.24-31.25 195.14-8 204.64-8ZM183.14-2.4L182.74-0.15 161.54-2.4 183.14-2.4ZM184.84-12.05L184.44-9.8 163.24-12.05 184.84-12.05ZM185.69-16.85L185.29-14.6 164.09-16.85 185.69-16.85ZM186.54-21.65L186.14-19.4 164.94-21.65 186.54-21.65ZM187.34-26.45L186.99-24.2 165.79-26.45 187.34-26.45ZM183.99-7.25L183.59-5 162.39-7.25 183.99-7.25ZM188.19-31.25L187.79-29 166.64-31.25 188.19-31.25ZM233.94-15.55L233.09-10.75 225.64-10.75 225.04-7.35 234.29-7.35 232.99 0 215.34 0 219.94-26.45 237.54-26.45 235.19-18.95 227.04-18.95 226.44-15.55 233.94-15.55ZM214.09-2.4L213.69-0.15 192.49-2.4 214.09-2.4ZM215.79-12.05L215.39-9.8 194.19-12.05 215.79-12.05ZM216.64-16.85L216.24-14.6 195.04-16.85 216.64-16.85ZM217.49-21.65L217.09-19.4 195.89-21.65 217.49-21.65ZM218.29-26.45L217.94-24.2 196.74-26.45 218.29-26.45ZM214.94-7.25L214.54-5 193.34-7.25 214.94-7.25ZM272.98 0L264.23 0 264.03-4.05 257.73-4.05 256.18 0 247.53 0 258.63-26.45 271.03-26.45 272.98 0ZM260.38-11.2L264.03-11.2 264.03-18.8 263.33-18.8 260.38-11.2ZM246.88-2.4L245.93-0.2 225.43-2.4 246.88-2.4ZM248.93-7.25L247.98-5.05 227.48-7.25 248.93-7.25ZM250.93-12.05L250.03-9.85 229.53-12.05 250.93-12.05ZM252.98-16.85L252.03-14.65 231.58-16.85 252.98-16.85ZM254.98-21.65L254.08-19.45 233.63-21.65 254.98-21.65ZM256.98-26.45L256.08-24.3 235.68-26.45 256.98-26.45ZM290.63-26.45L303.33-26.45Q310.63-26.45 310.63-19.85L310.63-19.85Q310.63-16.85 309.43-13.63 308.23-10.4 305.38-8.8L305.38-8.8 308.23 0 298.88 0 296.98-7.7 295.78-7.7 294.43 0 286.03 0 290.63-26.45ZM301.18-16.05L301.48-17.8Q301.48-17.85 301.53-18.3L301.53-18.3Q301.53-19.15 298.88-19.15L298.88-19.15 297.78-19.15 296.98-14.55 298.58-14.55Q300.88-14.55 301.18-16.05L301.18-16.05ZM284.78-2.4L284.38-0.15 263.18-2.4 284.78-2.4ZM286.48-12.05L286.08-9.8 264.88-12.05 286.48-12.05ZM287.33-16.85L286.93-14.6 265.73-16.85 287.33-16.85ZM288.18-21.65L287.78-19.4 266.58-21.65 288.18-21.65ZM288.98-26.45L288.63-24.2 267.43-26.45 288.98-26.45ZM285.63-7.25L285.23-5 264.03-7.25 285.63-7.25ZM344.38 0L337.58 0 332.43-9.9 332.23-9.9 330.48 0 322.08 0 326.68-26.45 333.48-26.45 338.68-16.6 338.98-16.6 340.68-26.45 349.03-26.45 344.38 0ZM320.83-2.4L320.43-0.15 299.23-2.4 320.83-2.4ZM322.53-12.05L322.13-9.8 300.93-12.05 322.53-12.05ZM323.38-16.85L322.98-14.6 301.78-16.85 323.38-16.85ZM324.23-21.65L323.83-19.4 302.63-21.65 324.23-21.65ZM325.03-26.45L324.68-24.2 303.48-26.45 325.03-26.45ZM321.68-7.25L321.28-5 300.08-7.25 321.68-7.25ZM379.13-15.55L378.28-10.75 370.83-10.75 370.23-7.35 379.48-7.35 378.18 0 360.53 0 365.13-26.45 382.73-26.45 380.38-18.95 372.23-18.95 371.63-15.55 379.13-15.55ZM359.28-2.4L358.88-0.15 337.68-2.4 359.28-2.4ZM360.98-12.05L360.58-9.8 339.38-12.05 360.98-12.05ZM361.83-16.85L361.43-14.6 340.23-16.85 361.83-16.85ZM362.68-21.65L362.28-19.4 341.08-21.65 362.68-21.65ZM363.48-26.45L363.13-24.2 341.93-26.45 363.48-26.45ZM360.13-7.25L359.73-5 338.53-7.25 360.13-7.25ZM397.92-26.45L410.62-26.45Q417.92-26.45 417.92-19.85L417.92-19.85Q417.92-16.85 416.72-13.63 415.52-10.4 412.67-8.8L412.67-8.8 415.52 0 406.17 0 404.27-7.7 403.07-7.7 401.72 0 393.32 0 397.92-26.45ZM408.47-16.05L408.77-17.8Q408.77-17.85 408.82-18.3L408.82-18.3Q408.82-19.15 406.17-19.15L406.17-19.15 405.07-19.15 404.27-14.55 405.87-14.55Q408.17-14.55 408.47-16.05L408.47-16.05ZM392.07-2.4L391.67-0.15 370.47-2.4 392.07-2.4ZM393.77-12.05L393.37-9.8 372.17-12.05 393.77-12.05ZM394.62-16.85L394.22-14.6 373.02-16.85 394.62-16.85ZM395.47-21.65L395.07-19.4 373.87-21.65 395.47-21.65ZM396.27-26.45L395.92-24.2 374.72-26.45 396.27-26.45ZM392.92-7.25L392.52-5 371.32-7.25 392.92-7.25Z" opacity="1" transform="matrix(1,0,0,1,0,0)" fill="#c81032" class="wordmark-text-0" data-fill-palette-color="primary" id="text-0"></path></svg></g></svg></g></svg></g></svg></g><g transform="matrix(1,0,0,1,0,0.07316361946799788)"><svg viewBox="0 0 13.657208967359738 29.265447787199438" height="29.265447787199438" width="13.657208967359738"><g><svg xmlns="http://www.w3.org/2000/svg" version="1.1" data-icon="flash" data-container-transform="translate(4)" viewBox="4 0 7 15" x="0" y="0" height="29.265447787199438" width="13.657208967359738" class="icon-icon-0" data-fill-palette-color="accent" id="icon-0"><path d="M6 0L4 8H8L7 12H5L8 15 11 12H9L11 6H7L9 0z" fill="#c1c1c1" data-fill-palette-color="accent"></path></svg></g></svg></g></svg></g><defs></defs></svg><rect width="395.52" height="27.33085588852593" fill="none" stroke="none" visibility="hidden"></rect></g></svg></g></svg>